<svg width="441" height="97" viewBox="0 0 441 97" fill="none" xmlns="http://www.w3.org/2000/svg">
<g clip-path="url(#clip0_4_24)">
<path d="M135 77.1C133.8 77.1 132.7 76.7 131.9 75.8C131.1 74.9 130.6 73.9 130.6 72.7V15.9C130.6 14.6 131 13.6 131.9 12.8C132.7 12 133.8 11.6 135 11.6H173C174.3 11.6 175.3 12 176.1 12.7C176.9 13.5 177.3 14.5 177.3 15.7C177.3 16.9 176.9 17.8 176.1 18.6C175.3 19.3 174.3 19.7 173 19.7H139.4V40H163.5C164.8 40 165.8 40.4 166.6 41.1C167.4 41.9 167.8 42.8 167.8 44C167.8 45.2 167.4 46.1 166.6 46.9C165.8 47.7 164.8 48 163.5 48H139.4V69H173C174.3 69 175.3 69.4 176.1 70.1C176.9 70.8 177.3 71.8 177.3 73C177.3 74.2 176.9 75.2 176.1 76C175.3 76.8 174.3 77.1 173 77.1H135Z" fill="#01EEF6"/>
<path d="M199.1 77.1C196.7 77.1 194.7 76.5 192.8 75.2C191 73.9 189.5 72.1 188.5 69.9C187.5 67.6 186.9 65 186.9 62.1V15.3C186.9 14.2 187.2 13.3 187.9 12.6C188.6 11.9 189.5 11.6 190.6 11.6C191.8 11.6 192.7 12 193.4 12.6C194.1 13.3 194.4 14.2 194.4 15.3V62C194.4 64.2 194.8 66 195.7 67.4C196.6 68.8 197.6 69.5 198.9 69.5H201C202.1 69.5 202.9 69.9 203.5 70.5C204.1 71.2 204.4 72.1 204.4 73.3C204.4 74.4 203.9 75.3 203 76C202.1 76.7 200.9 77 199.4 77H199.1V77.1Z" fill="#01EEF6"/>
<path d="M232 77.4C227.4 77.4 223.3 76.4 219.7 74.4C216.1 72.4 213.4 69.7 211.3 66.2C209.3 62.7 208.3 58.7 208.3 54.2C208.3 49.6 209.3 45.6 211.2 42.1C213.1 38.6 215.7 35.9 219.1 33.9C222.5 31.9 226.3 30.9 230.8 30.9C235.1 30.9 238.8 31.9 242 33.8C245.1 35.7 247.5 38.4 249.2 41.8C250.9 45.2 251.7 49.1 251.7 53.5C251.7 54.5 251.4 55.2 250.7 55.9C250.1 56.5 249.2 56.9 248.1 56.9H213.6V50.7H248.2L244.8 53.1C244.7 50.1 244.2 47.5 243 45.1C241.9 42.7 240.3 40.9 238.2 39.6C236.1 38.3 233.6 37.6 230.7 37.6C227.5 37.6 224.8 38.3 222.4 39.8C220.1 41.3 218.3 43.2 217.1 45.8C215.9 48.3 215.3 51.2 215.3 54.4C215.3 57.6 216 60.4 217.4 62.9C218.8 65.4 220.8 67.4 223.3 68.8C225.8 70.3 228.7 71 232 71C233.8 71 235.7 70.7 237.6 70C239.5 69.3 241.1 68.5 242.2 67.6C243 67 243.8 66.7 244.7 66.6C245.6 66.6 246.4 66.8 247 67.4C247.8 68.2 248.3 69 248.3 70C248.4 70.9 248 71.7 247.1 72.4C245.2 73.9 242.8 75.2 240 76.1C237.3 76.9 234.6 77.4 232 77.4Z" fill="#01EEF6"/>
<path d="M266.2 96.7C265.1 96.7 264.2 96.4 263.6 95.7C263 95.1 262.6 94.2 262.6 93.1V53.9C262.7 49.5 263.7 45.6 265.7 42.1C267.7 38.6 270.5 35.8 274 33.8C277.5 31.8 281.4 30.7 285.8 30.7C290.3 30.7 294.3 31.7 297.8 33.8C301.3 35.8 304.1 38.6 306.1 42.2C308.1 45.7 309.2 49.7 309.2 54.2C309.2 58.6 308.2 62.6 306.3 66.1C304.4 69.6 301.7 72.4 298.4 74.5C295 76.5 291.2 77.6 287 77.6C283.4 77.6 280.1 76.8 277.1 75.3C274.1 73.8 271.7 71.7 269.9 69.2V93.2C269.9 94.3 269.6 95.2 268.9 95.8C268 96.4 267.2 96.7 266.2 96.7ZM285.7 71.1C288.8 71.1 291.6 70.4 294.1 68.9C296.6 67.4 298.5 65.4 300 62.8C301.4 60.2 302.1 57.3 302.1 54.2C302.1 51 301.4 48.1 300 45.5C298.6 43 296.6 40.9 294.1 39.4C291.6 37.9 288.8 37.1 285.7 37.1C282.7 37.1 279.9 37.9 277.4 39.4C274.9 40.9 273 42.9 271.6 45.5C270.2 48 269.5 50.9 269.5 54.2C269.5 57.4 270.2 60.3 271.6 62.8C273 65.4 274.9 67.4 277.4 68.9C279.9 70.4 282.6 71.1 285.7 71.1Z" fill="#01EEF6"/>
<path d="M325.4 59C324.3 59 323.4 58.7 322.8 58C322.2 57.3 321.8 56.5 321.8 55.5V15.1C321.8 14 322.1 13.1 322.8 12.5C323.4 11.9 324.3 11.5 325.4 11.5C326.5 11.5 327.3 11.8 328 12.5C328.6 13.1 329 14 329 15.1V55.4C329 56.4 328.7 57.2 328 57.9C327.3 58.6 326.5 59 325.4 59ZM325.4 77.1C324.3 77.1 323.4 76.8 322.8 76.1C322.2 75.5 321.8 74.6 321.8 73.5V34.8C321.8 33.7 322.1 32.8 322.8 32.2C323.4 31.6 324.3 31.2 325.4 31.2C326.5 31.2 327.3 31.5 328 32.2C328.6 32.8 329 33.7 329 34.8V73.6C329 74.7 328.7 75.5 328 76.2C327.3 76.8 326.5 77.1 325.4 77.1ZM361 77.1C359.9 77.1 359.1 76.8 358.4 76.1C357.7 75.4 357.4 74.6 357.4 73.6V52.2C357.4 48.8 356.8 46 355.5 43.8C354.2 41.6 352.5 40 350.3 38.9C348.1 37.8 345.6 37.3 342.8 37.3C340.2 37.3 337.8 37.8 335.7 38.9C333.6 39.9 331.9 41.3 330.7 43.1C329.5 44.9 328.9 46.9 328.9 49.2H324C324.1 45.7 325 42.5 326.8 39.8C328.6 37.1 330.9 34.8 333.9 33.2C336.9 31.6 340.2 30.8 343.8 30.8C347.7 30.8 351.2 31.6 354.3 33.3C357.4 35 359.9 37.4 361.7 40.6C363.5 43.8 364.4 47.7 364.4 52.4V73.8C364.4 74.8 364.1 75.6 363.4 76.3C362.9 76.7 362 77.1 361 77.1Z" fill="#01EEF6"/>
<path d="M383.3 22.4C382.1 22.4 381 22 380.1 21.1C379.2 20.2 378.8 19.1 378.8 17.8C378.8 16.4 379.3 15.3 380.2 14.5C381.1 13.7 382.2 13.3 383.4 13.3C384.6 13.3 385.6 13.7 386.5 14.5C387.4 15.3 387.9 16.4 387.9 17.8C387.9 19.1 387.5 20.2 386.6 21.1C385.7 22 384.6 22.4 383.3 22.4ZM383.4 77.1C382.4 77.1 381.6 76.8 381 76.2C380.4 75.6 380.1 74.8 380.1 73.8V34.4C380.1 33.4 380.4 32.6 381 32C381.6 31.4 382.4 31.1 383.4 31.1C384.4 31.1 385.1 31.4 385.7 32C386.3 32.6 386.6 33.4 386.6 34.4V73.8C386.6 74.8 386.3 75.6 385.7 76.2C385.1 76.8 384.4 77.1 383.4 77.1Z" fill="#01EEF6"/>
<path d="M423.4 77.6C419 77.6 415.1 76.6 411.7 74.5C408.3 72.4 405.5 69.6 403.6 66.1C401.7 62.6 400.6 58.6 400.6 54.2C400.6 49.7 401.5 45.7 403.4 42.2C405.3 38.7 407.8 35.9 411 33.8C414.2 31.8 418 30.7 422.2 30.7C425.8 30.7 429.1 31.4 432 32.8C435 34.2 437.5 36.3 439.7 39.1C440.1 39.7 440.3 40.2 440.2 40.9C440.1 41.5 439.7 42 439.1 42.4C438.6 42.8 438 42.9 437.4 42.9C436.8 42.8 436.3 42.5 435.8 41.9C432.2 37.6 427.7 35.5 422.1 35.5C418.8 35.5 415.9 36.3 413.4 37.9C410.9 39.5 409 41.7 407.6 44.5C406.2 47.3 405.5 50.5 405.5 54.2C405.5 57.7 406.3 60.9 407.8 63.7C409.3 66.5 411.4 68.8 414.1 70.4C416.8 72.1 419.8 72.9 423.4 72.9C425.7 72.9 427.9 72.6 429.9 71.9C431.9 71.2 433.7 70.2 435.2 68.8C435.7 68.4 436.3 68.1 436.9 68C437.5 67.9 438 68.1 438.5 68.6C439.1 69.1 439.4 69.7 439.4 70.3C439.4 70.9 439.2 71.5 438.7 71.9C434.6 75.7 429.5 77.6 423.4 77.6Z" fill="#01EEF6"/>
<path d="M111 56.4C108.1 56.4 105.7 58.8 105.7 61.7C105.7 64.6 103.3 67 100.4 67C97.5 67 95.1 64.6 95.1 61.7V22.9C95.1 10.3 84.9 0 72.2 0H68.7C64.8 0 60.3 1.4 57.8 2.7C55.4 4.1 49.9 7.2 47.2 10.5C41.6 10.7 29.6 10.5 29.6 10.5L19 10.8C8.3 12.7 0 22.1 0 33.5V78.7C0 81.6 2.4 84 5.3 84C8.2 84 10.6 81.6 10.6 78.7V65.1H63.5V78.7C63.5 81.6 65.9 84 68.8 84C71.7 84 74.1 81.6 74.1 78.7V45.8H84.7V61.7C84.7 70.4 91.8 77.6 100.6 77.6C109.4 77.6 116.5 70.5 116.5 61.7C116.3 58.7 113.9 56.4 111 56.4ZM63.4 54.6H10.6V33.5C10.6 26.7 16.1 21.2 22.9 21.2H24.4H45.9C45.9 21.8 45.8 22.4 45.8 23C45.8 33.8 53.3 42.9 63.4 45.3V54.6ZM84.6 35.2H68.7C61.9 35.2 56.4 29.7 56.4 22.9C56.4 16.1 61.9 10.6 68.7 10.6H72.2C79 10.6 84.5 16.1 84.5 22.9V35.2H84.6Z" fill="#01EEF6"/>
</g>
<defs>
<clipPath id="clip0_4_24">
<rect width="440.2" height="96.7" fill="white"/>
</clipPath>
</defs>
</svg>
